<svg version="1.1" xmlns="http://www.w3.org/2000/svg" xmlns:xlink="http://www.w3.org/1999/xlink" x="0px" y="0px"
     viewBox="0 0 566.93 935.43" xml:space="preserve"> <style type="text/css">
    .fill_base{fill:#C7A058;} .fill_surface{fill:#56118F;} .fill_ring{fill:#A37DBD;} .fill_white{fill:#FFFFFF;} .fill_field{fill:#00FFFF;} .fill_white_star{fill:#FFFFFF;} .fill_red_star{fill:#E0B1B1;} .fill_blue_star{fill:#BFDCF4;} .fill_purple_star{fill:#8E97CC;} .text_name{fill:#FFFFFF; font-size:45.7187px;} .text_metadata{fill:#FFFFFF; font-size:25.8782px;} .circle_logo{fill:none;stroke:#00FFFF;stroke-miterlimit:10;} .style_pic_frame{fill:none;stroke:#FFFFFF;stroke-width:0.5;stroke-miterlimit:10;} .clip_path{clip-path:url(#clipPath_animation_planet);} </style>
    <g id="sky_1"> <radialGradient id="SKY_1_MAIN" cx="283.4646" cy="283.4646" r="283.4646"
                                   gradientUnits="userSpaceOnUse"> <stop offset="0" style="stop-color:#4F4FA6"/>
        <stop offset="0.35" style="stop-color:#212145"/>
        <stop offset="0.6706" style="stop-color:#0F1120"/> </radialGradient>
        <path style="fill:url(#SKY_1_MAIN);" d="M0,0v935.43h566.9V0H0z"/>
        <path style="opacity:0.16;fill:#5D5DC2;"
              d="M135.82,252.15c-0.13,2.59-0.04,8.45-2.1,10.65c-2.33,2.48-7.04,0.68-9.76,0.39c-2.26-0.24-4.49-1.01-6.78-0.87c-1.9,0.12-3.69,0.79-5.61,0.65c-1.39-0.1-3.97-0.37-5.19-0.99c-1.45-0.73-2.17-2.09-3.25-3.29c-2.65-2.94-4.34-6.95-6.54-10.26c-1.39-2.09-1.63-4.03-1.87-6.49c-0.32-3.26-0.89-6.5-1.09-9.77c-0.29-4.68-0.84-9.67-0.01-14.32c0.77-4.31,2.67-7.1,5.75-10.16c1.27-1.26,2.85-2.07,4.1-3.35c1.52-1.54,2.96-3.28,4.83-4.45c1.02-0.64,2.25-1.32,3.42-1.59c1.65-0.38,2.47,0.16,3.97,0.34c2.18,0.26,3.12,0.13,5.05,1.31c1.44,0.88,2.78,1.98,3.81,3.31c2.13,2.73,4.83,5.13,6.73,7.98c2.54,3.82,3.93,7.2,3.97,11.88c0.03,4.1,0.69,8.08,1.41,12.14c0.59,3.35,1.49,8.08,0.72,11.55C136.83,249.34,135.64,251.34,135.82,252.15z"/>
        <path style="fill:#5D5DC2;opacity:0.16;"
              d="M546.39,262.72c-6.8,2.72-14.83,12.27-18.88,13.48c-2.48,0.74-5.04,0.17-7.64,1.19c-2.48,0.97-4.03,2.49-6.19,3.91c-3.24,2.08-7.35,4.6-10.56,2.01c-3.17-2.62-2.33-10.29-7.86-9.07c-2.75,0.65-4.37,3.58-7.51,4.19c-2.67,0.48-4.74,0.81-7.28,1.86c-4.32,1.75-7.32,4.07-11.25,6.33c-1.98,1.16-3.74,1.04-5.92,1.32c-1.72,0.24-4.82,1.7-6.37,1.5c-5.64-0.64-3.44-7.04-2.68-10.58c0.42-1.84,1.2-4.1,1.37-5.98c0.18-2.22-0.61-3-0.98-5.05c-1.05-5.22,0.97-10.16,3.4-14.78c3.55-6.74,7.19-13.99,8.7-21.45c0.68-3.37,1.67-5.47,0.98-8.78c-0.5-2.48-0.93-4.93-1.35-7.44c-0.53-3.04-0.62-5.58-0.68-8.65c-0.12-4.06-1.55-7.83-1.81-11.88c-0.21-3.45,0.73-11.02,2.9-13.87c1.05-1.32,2.83-1.78,3.79-3.35c0.97-1.53,0.61-3.05,2-4.36c3.16-3.01,11.47-2.5,15.38-2.61c5.95-0.15,12.96,1.3,18.43,3.58c5.99,2.51,10.28,5.88,15.57,9.29c1.86,1.22,5.96,3.28,9.24,3.48c-0.88-2.47-1.81-4.97-2.78-7.44c-18.95-48.22-50.53-87.7-89.47-116.13c-0.66-0.22-1.32-0.44-1.96-0.61c-3.46-0.93-7.64-1.72-11.23-1.88c-3.2-0.13-6.17,0.8-9.05,0.88c-5,0.15-10.23-0.66-15.2-1.66c-6.07-1.24-11.94-0.89-18-1.99c-15.83-2.89-28.87-14.36-41.95-23.01c-3.16-2.1-5.26-3.32-8.08-5.75c-1.93-1.63-4.01-2.43-6.32-3.34c-5-2.04-10.79-3.92-16.26-2.53c-3.3,0.82-5.25,3.64-7.69,6.03c-3.36,3.23-4.56,4.42-0.82,7.14c6.49,4.75,15.2,8.95,12,18.75c-2.03,6.24-3.52,12.4-6.4,18.3c-3.21,6.51-4.96,15.16-11.36,19.63c-4.76,3.3-11.33,1.4-16.83,1.46c-4.89,0.06-10.1-0.56-14.84,0.82c-3.72,1.08-6.24,3.55-9.55,5.42c-5.1,2.91-11.48,4.27-16.03,0.1c-1.75-1.55-1.36-2.37-3.91-3.04c-2.34-0.61-5.73,0.11-8.03,0.44c-7.01,1.09-13.69,4.38-20.65,5.35c-4.66,0.64-9.75,0.3-14.44,0.38c-3.09,0.02-6.47,1.25-9.28,0.78c-1.63-0.27-3.58-1.22-5.3-1.59c-5.11-1.24-8.44-1.21-13.39,0.87c-9.81,4.05-21.71,12.25-28.85,20.4c-4.64,5.31-3.36,8.57,0.7,13.32c3.46,4.08,9.93,8.4,10.76,13.9c0.72,4.63-1.32,9.39-1.19,13.97c0.11,4.53,0.17,8.8,3.54,12.16c5.65,5.65,14,8.43,20.21,13.33c7,5.55,14,16.82,8.41,25.17c-2.78,4.1-3.42,8.64-4.55,13.43c-0.73,3.24-0.91,7.89-5.05,8.52c-2.75,0.41-6.11-2.08-8.86-1.91c-3.17,0.2-5.18,2.23-6.95,4.64c-2.7,3.68-6.76,7.81-8.4,12.12c-3,7.9,2.16,19.95,8,25.33c6.99,6.51,13.63,13.44,23.62,14.23c0.33,0.03,0.67,0.04,1,0.05c-0.34-3.46-0.52-6.98-0.52-10.53c0-58.71,47.59-106.3,106.3-106.3c58.71,0,106.3,47.59,106.3,106.3c0,10.89-1.64,21.4-4.68,31.29c1.91,4.21,4.05,8.28,6.61,12.08c3.43,5.09,7.13,9.41,11.28,13.79c1.35,1.38,1.76,0.6,2.22,2.99c0.27,1.42-0.21,6.14-0.58,7.62c-0.95,3.9-4.58,8.24-6.31,11.97c-1.66,3.66-4.38,6.44-6.61,9.75c-3.24,4.75-6.65,9.05-9.99,13.66c-5.43,7.43-1.5,17.05-5.5,25.44c-5.67,11.91-15.46,17.57-25.04,26.1c-7.67,6.83-15.68,12.89-22.42,20.5c-4.23,4.76-6.93,9.92-11.67,14.36c-6,5.6-13.13,9.55-19.7,14.32c-5.2,3.76-10.88,6.9-17.13,8.59c-4.06,1.07-7.43,1.01-11.58,2.69c-7.31,2.87-14.66,5.9-22.06,8.67c-3.96,1.46-8.05,0.87-12.26,0.96c-4.25,0.1-8.61-0.19-12.92-0.12c-11.25,0.13-25.89,3.78-35.99-2.5c-2.96-1.84-5.55-4.4-8.63-6.05c-2.61-1.31-5.35-1.48-8.08-2.36c-2.3-0.76-4.15-1.47-6.47-1.89c-3.75-0.67-6.01-2.07-9.47-3.72c-2.81-1.33-5.87-2.08-8.96-2.54c-1.57-0.24-4.34,0.13-5.71-0.57c-1.83-0.9-1.38-1.94-2.37-3.6c-1.07-1.87-2.59-3.08-3.81-4.85c-3.2-4.75-8.6-9.88-14.97-10.91c-3.46-0.55-5.53-0.12-8.89-1.37c-6.26-2.21-9.06-3.88-13.45-9.22c-0.02,0.2-0.04,0.4-0.03,0.54c37.64,39.2,73.83,68.73,123.2,79.91c13.92,3.15,28.49,2.14,41.76-3.12c1.63-0.65,2.79-1.18,3.08-1.5c4.08-4.42,8.62-6.11,14.09-8.21c7.19-2.83,13.79-6.18,20.37-10.3c5.84-3.58,11.76-6,18.22-8.49c7.97-3.03,14.95-7.83,23-10.9c7.65-2.86,15.47-3.36,23.47-4.6c11.46-1.79,21.49-9.16,31.06-15.4c4.34-2.8,7.69-7.12,12.17-9.69c2.73-1.55,5.6-2.49,8.29-4.26c6.36-4.08,15.45-8.26,22.9-10.05c5.11-1.2,8.53,1.8,13.07,2.78c4.79,1.03,9.08-2.99,13.45-4.14c5.1-1.34,10.59,1.23,14.39,4.93C524.15,403.48,549.91,333.93,546.39,262.72z M354.39,67.59c-0.37,3.2-2.48,6.32-4.74,8.45c-1.7,1.62-5.13,3.83-7.36,4.7c-5.27,2.12-11.79-0.14-16.79-1.7c-2.91-0.86-9.76-4.08-1.94-4.58c-1.56-1.67-3.15-2.91-3.78-5c-0.45-1.4-0.57-3.26-0.75-4.71c-0.51-3.47,0.37-6.82,0.12-10.25c-0.21-2.59-0.48-5.82-1.27-8.33c-0.71-2.3-2.14-3.98-0.73-6.34c0.89-1.49,1.94-1.86,3.49-1.56c1.63,0.27,3.61,2.02,5.15,2.79c1.73,0.89,3.43,1.8,5.11,2.81c4.95,2.78,8.63,7.39,13.31,10.56c2.64,1.73,4.89,2.85,7.06,5.34C353.15,61.88,354.66,64.62,354.39,67.59z M451.21,167.1c-2.82-3.42-4.91-6.56-7.3-10.2c-2.83-4.42-6.72-8.24-9.97-12.39c-5.38-6.9-11.96-15.14-13.03-24.17c-0.69-5.88,1.21-13.31,5.96-16.99c3.34-2.55,8.11-4.62,12.31-4.84c5.29-0.36,10.5,1.36,15.44,3c4.84,1.63,9.64,4.51,12.85,8.54c2.29,2.92,3.96,6.31,6.47,9.05c1.27,1.41,2.47,2.65,3.63,4.15c1.42,1.92,3.51,2.87,5.42,4.21c2.89,2.01,5.35,3.29,6.77,6.55c1.34,3.05,2.39,6.21,3.61,9.31c1.15,2.93,2.74,5.65,2.25,8.89c-0.82,5.33-6.84,9.17-11.18,11.6c-6.42,3.57-15.31,4.73-22.59,5.63c-3.09,0.4-5.41,0.31-8.34-0.59C450.45,167.97,446.9,168.17,451.21,167.1z"/>
        <path style="opacity:0.16;fill:#5D5DC2;"
              d="M533.8,299.23c-3.93-0.47-8.46,2.43-12.02,3.77c-5.71,2.14-11.44,0.16-16.58-2.54c-4.17-2.19-7.85-5.02-12.21-6.85c-2.15-0.91-4.89-2.79-7.3-2.58c-1.81,0.16-4.13,1.31-5.6,2.26c-3.59,2.33-7.45,4.05-11.72,4.82c-3.75,0.67-9.09,1.48-12.67-0.03c-2.31-0.98-4.42-2.75-6.59-4.02c-3.19-1.88-4.39-7.16-4.42-10.73c-0.08-7.5-2.24-14.84-2-22.34c0.15-4.75,6.01-5.68,8.71-8.99c2.13-2.61,2.42-5.56,3.61-8.51c1.04-2.56,3.09-5.01,4.56-7.37c4.9-7.88,2.94-16.59-5.73-21.17c-4.96-2.62-10.6-2.22-14.93,1.17c-1.93,1.5-3.97,2.95-5.71,4.66c-2.3,2.27-3.99,4.88-6.86,6.57c-10.96,6.46-23.34,3.89-35.06,2.12c-5.33-0.81-11.26-0.96-16.54,0.22c8.94,15.57,14.07,33.6,14.07,52.84c0,4.1-0.24,8.15-0.69,12.13c1.53,2.49,3.45,4.69,6.1,6.26c2.07,1.23,3.86,1.72,6.28,0.92c2.18-0.72,3.48-2.54,5.73-3.27c1.88-0.61,3.5,0.17,5.46,0.28c2.48,0.14,4.96,0.13,7.44,0.12c2.37-0.01,3.7,0.48,5.83,1.35c1.83,0.75,4.04,0.63,5.31,2.42c1.35,1.9-0.42,4.01-1.06,5.99c-1.28,4-2.5,7.54-5.43,10.66c-1.84,1.97-2.89,2.34-5.5,2.5c-2.42,0.15-4.69,0.19-6.3,2.41c-2.08,2.88-3.69,6.53-4.19,10.05c-0.07,0.47-0.02,2.21,0.08,2.55c0.49,1.66,0.14,0.55,1.28,1.44c1.27,0.98,2.44,1.45,3.09,3.1c0.93,2.38,1.05,6.27,0.71,8.76c-0.24,1.76-0.71,3.63-1.62,5.2c-1.06,1.84-1.48,3.71-2.73,5.48c-2.42,3.43-3.45,7.2-6.33,10.46c-3.35,3.8-6.02,8.12-8.66,12.44c-5.56,9.11-12.32,16.66-13.85,27.62c-0.37,2.67,0.34,7.74,2.65,9.57c0.92,0.73,2.72,0.93,3.81,1.51c2.05,1.11,3.06,2.66,4.6,4.37c1.66,1.84,4.13,4.69,6.61,5.44c2.43,0.73,6.22,0.09,8.64-0.72c1.44-0.49,2.64-1.11,4.12-1.47c1.13-0.27,2-0.11,3.2-0.5c4.16-1.38,7.57-2.87,12.2-1.99c1.58,0.3,2.95,0.96,4.31,1.76c1.6,0.95,3.11,2.79,4.83,3.47c3.49,1.38,7.93-3.01,10.07-4.97c3.14-2.88,6.41-6.94,10.85-7.78c2.68-0.51,5.28,0.71,8.03,0.58c3.79-0.19,6.74-0.1,10.43,0.61c1.57,0.3,2.38,0.59,3.98,0.06c4.85-1.62,8.41-6.17,11.55-9.98c3.74-4.54,6.74-9.59,10.47-14.1c4.11-4.97,6.55-9.24,9.17-15.13c2.35-5.27,5.88-9.65,8.84-14.56c2.25-3.72,4.36-7.52,6.54-11.28c2.23-3.86,3.51-8.18,5.15-12.29c1.3-3.27,2.89-6.18,3.6-9.64c0.78-3.84,1.28-7.9,2.47-11.6c1.29-4.02,2.15-7.57,2.65-11.76C538.98,307.18,539.32,299.9,533.8,299.23z"/> </g>
    </svg>
